inDegrees=yes
name=IK-live
DataType=double
version=3
OpenSimVersion=4.1
endheader
time	pelvis_tilt	pelvis_list	pelvis_rotation	pelvis_tx	pelvis_ty	pelvis_tz	hip_flexion_r	hip_adduction_r	hip_rotation_r	knee_angle_r	ankle_angle_r	subtalar_angle_r	mtp_angle_r	hip_flexion_l	hip_adduction_l	hip_rotation_l	knee_angle_l	ankle_angle_l	subtalar_angle_l	mtp_angle_l	lumbar_extension	lumbar_bending	lumbar_rotation	neck_flex	neck_latbend	neck_rot	arm_flex_r	arm_add_r	arm_rot_r	elbow_flex_r	pro_sup_r	wrist_flex_r	wrist_dev_r	arm_flex_l	arm_add_l	arm_rot_l	elbow_flex_l	pro_sup_l	wrist_flex_l	wrist_dev_l
57.5132939	-46.69565392617277	117.4294701761365	-117.4692542260976	0.2341366603171506	0.04326292228651554	-1.326684523481465	33.39693089697332	134.3275555955943	112.866992149264	5.899560354604904	2.451982624139334	1.987972377786656	0	-38.38653234262833	16.26988413169995	-18.25733928266066	9.793848132074926	-0.4439473045988533	4.250290820099795	0	-21.37711699760957	1.659277491615732	3.206407148933037	0	0	0	13.31169465023771	-15.12494712183718	19.96724423986601	78.01812901019117	45.01792170983766	0	6.30100120384004	17.41702692891042	-13.74693821107655	25.2336225809482	78.72145725494993	44.37850595201639	0	6.30100120384004
57.7732112	-47.02465978602986	119.6154133486054	-118.1760016811385	0.2341366603171506	0.04326292228651554	-1.326684523481465	32.15064990697041	135.4171034844422	111.4883672004307	5.899560354604904	2.451982624139334	1.987972377786656	0	-35.11403190296457	15.74618302256473	-17.60029680897993	9.793848132074926	-0.4439473045988533	4.250290820099795	0	-21.37711699760957	1.659277491615732	3.206407148933037	0	0	0	29.82918503218294	-15.07568605132331	10.37971482748322	74.55976935399148	46.5009037503582	0	5.128109077687133	33.05080611565165	-14.24097226961891	12.80354857696568	74.72355769033339	45.70492072514315	0	5.128109077687133
58.0260763	-44.32636065976845	120.9205598228067	-124.9701838128178	0.2341366603171506	0.04326292228651554	-1.326684523481465	34.10119799990356	138.8703821491601	108.2319281075943	5.899560354604904	2.451982624139334	1.987972377786656	0	-35.1255733064306	18.56760692774695	-16.37658706411183	9.793848132074926	-0.4439473045988533	4.250290820099795	0	-21.37711699760957	1.659277491615732	3.206407148933037	0	0	0	86.61503548877343	-14.98759560529126	-1.547911890571567	74.73924613002134	44.9352065014873	0	4.997247823004875	87.02613109968216	-15.12437698843356	-1.895834653390279	74.72026482301003	44.96791993369908	0	4.997247823004875
58.2769865	-39.58951262930346	124.4378337798576	-129.4653604418491	0.2341366603171506	0.04326292228651554	-1.326684523481465	28.19704594563889	137.0223955476293	112.5682248530207	5.899560354604904	2.451982624139334	1.987972377786656	0	-30.89923427551967	17.03757289527136	-17.07217072788286	9.793848132074926	-0.4439473045988533	4.250290820099795	0	-21.37711699760957	1.659277491615732	3.206407148933037	0	0	0	8.861219268287195	-15.1425322437599	24.26241335638362	61.27441924565723	41.01094367021322	0	6.656619582319833	13.29099891725778	-13.57055446585187	31.20817373615677	61.98309140382985	42.19865000045215	0	6.656619582319833
58.5366488	-38.5904653359701	126.0559548370372	-130.5402196653419	0.2341366603171506	0.04326292228651554	-1.326684523481465	62.74817779535978	115.8874414067618	80.87429904833844	5.899560354604904	2.451982624139334	1.987972377786656	0	-28.55691111515575	18.63670424656126	-19.5630995919773	9.793848132074926	-0.4439473045988533	4.250290820099795	0	-21.37711699760957	1.659277491615732	3.206407148933037	0	0	0	16.53912982450386	-15.11216053234568	17.47775498284454	71.95083762613123	46.61244175125763	0	6.998674217024591	20.44553890882665	-13.87516774053451	22.43459160561939	72.35647784622803	45.6541370931925	0	6.998674217024591
59.1866953	-38.47482661829675	126.0846106318918	-130.4975141973239	0.2341366603171506	0.04326292228651554	-1.326684523481465	66.64994149690652	115.2455671326808	77.18044846355322	5.899560354604904	2.451982624139334	1.987972377786656	0	-28.53552387790244	18.64422488392286	-19.68935635127383	9.793848132074926	-0.4439473045988533	4.250290820099795	0	-21.37711699760957	1.659277491615732	3.206407148933037	0	0	0	75.20010275598185	-14.98353587029077	-3.058777393549098	75.03744343826534	45.07293763679301	0	5.019746891954775	75.64279409145345	-15.16512987772537	-3.869872912967985	74.95888575807221	45.04368173624491	0	5.019746891954775
59.8487123	-38.38458184696438	126.1289635599362	-130.4416105213855	0.2341366603171506	0.04326292228651554	-1.326684523481465	70.58182921117665	114.6859660928934	73.36302533095918	5.899560354604904	2.451982624139334	1.987972377786656	0	-28.50488702362687	18.649156495433	-19.78324961553628	9.793848132074926	-0.4439473045988533	4.250290820099795	0	-21.37711699760957	1.659277491615732	3.206407148933037	0	0	0	36.31681196635479	-15.04709261626416	7.270298169247738	65.93487552730663	46.0239839074732	0	6.308372149790393	39.29377749625137	-14.52759952504513	11.57720055973709	66.53130286301864	46.06787453077487	0	6.308372149790393
60.1007943	-6.764528434513807	144.4773440186535	-147.2975965957024	0.2341366603171506	0.04326292228651554	-1.326684523481465	-39.5976077634493	18.5432453689719	153.8769327512219	5.899560354604904	2.451982624139334	1.987972377786656	0	-38.21233114612221	-3.006160495493519	-16.39054492780073	9.793848132074926	-0.4439473045988533	4.250290820099795	0	-21.37711699760957	1.659277491615732	3.206407148933037	0	0	0	35.48253812669969	-15.04950019575255	8.520110853543502	74.24109288558964	45.53965570331037	0	6.315990397589159	38.62763044625829	-14.50339975270728	13.55083047391082	75.11469841166894	45.49916308378325	0	6.315990397589159
60.3514899	3.521292792056832	148.652458852434	-146.361599369015	0.2341366603171506	0.04326292228651554	-1.326684523481465	-46.94790538578417	26.58372257856417	154.540064537653	5.899560354604904	2.451982624139334	1.987972377786656	0	-48.65967412378583	-13.35235466194285	-17.08877416075727	9.793848132074926	-0.4439473045988533	4.250290820099795	0	-21.37711699760957	1.659277491615732	3.206407148933037	0	0	0	13.82695557419886	-15.12610332465433	22.18850943463865	65.86336501614498	40.46039167421211	0	5.91240924262289	18.11019062831121	-13.73524900718402	29.32176852041573	66.73320361806576	41.91659750454696	0	5.91240924262289
60.6134428	3.632442121213933	153.2940406652039	-147.9959228074547	0.2341366603171506	0.04326292228651554	-1.326684523481465	-43.35182401821614	29.73315427438086	159.5829003090361	5.899560354604904	2.451982624139334	1.987972377786656	0	-46.22920028402256	-16.40655730545421	-13.62427130768359	9.793848132074926	-0.4439473045988533	4.250290820099795	0	-21.37711699760957	1.659277491615732	3.206407148933037	0	0	0	86.05518214132996	-14.99475309288581	-0.3508107165621334	75.00152658091136	44.98551221768399	0	5.421333519602853	86.38725380841254	-15.05260342359017	-0.3770074037668172	75.00972301324434	44.8896867650757	0	5.421333519602853
60.9110346	3.718301567923008	153.2626381677791	-147.6027625733269	0.2341366603171506	0.04326292228651554	-1.326684523481465	-43.47802460774247	29.43503999250894	160.50031622211	5.899560354604904	2.451982624139334	1.987972377786656	0	-46.12527583042981	-16.7305287067108	-13.5703619765274	9.793848132074926	-0.4439473045988533	4.250290820099795	0	-21.37711699760957	1.659277491615732	3.206407148933037	0	0	0	19.79807706958062	-15.10663018709074	19.02172663387305	73.68471640592425	42.76302961211583	0	6.30457797746521	23.89372351173913	-13.93048516959166	25.57531847265447	74.59189137637155	43.20055436539008	0	6.30457797746521
61.1630504	0.7061444928381455	152.1251938182019	-146.7754305145745	0.2341366603171506	0.04326292228651554	-1.326684523481465	-37.16883478735022	25.93128287241614	157.7864510928088	5.899560354604904	2.451982624139334	1.987972377786656	0	-40.55221488447308	-11.14945806178514	-9.945236963572397	9.793848132074926	-0.4439473045988533	4.250290820099795	0	-21.37711699760957	1.659277491615732	3.206407148933037	0	0	0	88.98459650439663	-14.99741219155873	-0.1493310536192204	75.02530268843662	45.0802621824639	0	5.000698082253945	88.99374884161965	-15.02595130522193	-0.1873291618009506	75.02922141548456	45.04156059564757	0	5.000698082253945
61.4972126	0.5249208158218736	151.9268297316174	-146.8984286240812	0.2341366603171506	0.04326292228651554	-1.326684523481465	-36.94685284056676	25.50035844933741	157.7156987924703	5.899560354604904	2.451982624139334	1.987972377786656	0	-40.53164180897322	-10.88343268058128	-9.513120582829385	9.793848132074926	-0.4439473045988533	4.250290820099795	0	-21.37711699760957	1.659277491615732	3.206407148933037	0	0	0	19.74443405510838	-15.09833099164321	13.39747642435159	72.86011351865974	44.67109370994896	0	1.690283267329895	23.30112339416744	-14.0139263209082	16.4920999888106	73.11267650985327	44.96784986250663	0	1.690283267329895
61.7507677	-7.658790069119421	150.8490247499134	-152.2573643885733	0.2341366603171506	0.04326292228651554	-1.326684523481465	-34.16776377086992	20.95194765438551	149.9094869286142	5.899560354604904	2.451982624139334	1.987972377786656	0	144.183854657443	-184.4153003154437	-190.0995631298498	9.793848132074926	-0.4439473045988533	4.250290820099795	0	-21.37711699760957	1.659277491615732	3.206407148933037	0	0	0	81.18356342911068	-14.98564873019286	-2.345577967101526	75.17826324323383	45.05572185872803	0	5.155902056063434	81.81396999688465	-15.14389609417479	-2.878941848866525	75.13868963904901	45.00675705853639	0	5.155902056063434
62.013491	-6.359445807035405	153.0717061853722	-159.6984237351138	0.2341366603171506	0.04326292228651554	-1.326684523481465	-33.35901517548371	23.32687755872473	156.8031764963063	5.899560354604904	2.451982624139334	1.987972377786656	0	-31.07292274227491	6.64452774860623	-18.92502899461513	9.793848132074926	-0.4439473045988533	4.250290820099795	0	-21.37711699760957	1.659277491615732	3.206407148933037	0	0	0	11.03138848082224	-15.13352046127588	21.79183479256078	77.38499250745024	44.432777670391	0	6.751383330760441	15.2762963259817	-13.66095675274866	27.61398539827457	78.28973798438844	43.95360364347899	0	6.751383330760441
62.2734225	-3.632876934163614	157.8151850210596	-151.5237417798772	0.2341366603171506	0.04326292228651554	-1.326684523481465	-32.96687036941024	27.15182723457672	159.1598811606939	5.899560354604904	2.451982624139334	1.987972377786656	0	143.1738469293454	-181.1010738616782	-197.0374064822651	9.793848132074926	-0.4439473045988533	4.250290820099795	0	-21.37711699760957	1.659277491615732	3.206407148933037	0	0	0	11.83622195135875	-15.13068928481947	21.48874443946047	73.55646603796228	43.9585567177217	0	7.054590574494255	16.05089041457663	-13.68933928576878	27.51321934220682	74.49685479624364	43.85384484423969	0	7.054590574494255
62.5235304	2.927443978385961	164.0320237010227	-149.1118569923228	0.2341366603171506	0.04326292228651554	-1.326684523481465	-36.0698920790296	32.80023992534305	168.6607858772264	5.899560354604904	2.451982624139334	1.987972377786656	0	135.1366404488465	-165.5160838611478	-195.7778318481141	9.793848132074926	-0.4439473045988533	4.250290820099795	0	-21.37711699760957	1.659277491615732	3.206407148933037	0	0	0	83.20183718175927	-14.99013436709314	-1.360893214124357	74.86685604596705	45.06967418833515	0	5.236418654935953	83.99217597728561	-15.09889925118093	-1.653863909274462	74.83538379964492	45.02189771219209	0	5.236418654935953
62.8254139	3.295708246541924	164.3642902229521	-149.042962076698	0.2341366603171506	0.04326292228651554	-1.326684523481465	-36.44657787602914	33.15052409061656	169.2466119851714	5.899560354604904	2.451982624139334	1.987972377786656	0	134.9473969591491	-164.9381782579727	-196.5356242034562	9.793848132074926	-0.4439473045988533	4.250290820099795	0	-21.37711699760957	1.659277491615732	3.206407148933037	0	0	0	12.28346896160226	-15.12985567737767	21.69064696826234	72.09968222124152	43.23901760135043	0	7.022742533351418	16.51227569752109	-13.69768249816592	27.98869739941886	73.05359115238572	43.45139153487131	0	7.022742533351418
63.0760088	8.722495573930589	169.4903794343165	-147.4489655968873	0.2341366603171506	0.04326292228651554	-1.326684523481465	-40.55898045582955	40.53835292627023	174.5660186109766	5.899560354604904	2.451982624139334	1.987972377786656	0	128.8514480889597	-157.1464734093894	-200.9805702133964	9.793848132074926	-0.4439473045988533	4.250290820099795	0	-21.37711699760957	1.659277491615732	3.206407148933037	0	0	0	76.05098303203599	-14.98954091905383	-2.51645238048096	75.51325702359213	45.52597306718059	0	4.557633460114531	77.00917498717942	-15.10486890869675	-3.067779191281543	75.39359729029275	45.44188142409554	0	4.557633460114531
